<svg version="1.1" xmlns="http://www.w3.org/2000/svg" xmlns:xlink="http://www.w3.org/1999/xlink" x="0px" y="0px"
	 width="303.56px" height="372.33px" viewBox="0 0 303.56 372.33" style="enable-background:new 0 0 303.56 372.33;"
	 xml:space="preserve">

<path d="M213.68,372.33c-41.21,0-82.42,0-123.62,0c-6.55-1.6-9.61-5.43-9.71-12.42c-0.1-7.39-0.03-14.78-0.03-22.17
	c0-53.55,0-107.1,0-160.65c0-1.7,0.07-3.39-0.12-5.08c-0.62-5.38-3.1-7.74-8.48-8.06c-1.21-0.07-2.42-0.04-3.63-0.04
	c-17.45,0-34.89,0-52.34,0c-1.57,0-3.16,0.09-4.72-0.12c-4.36-0.6-8.14-2.66-9.75-6.68c-1.78-4.44-1.91-9.24,1.15-13.5
	c0.99-1.38,2.24-2.54,3.44-3.74C50.74,94.96,95.64,50.08,140.51,5.16c2.43-2.43,4.9-4.63,8.45-5.16c1.94,0,3.88,0,5.82,0
	c3.09,0.54,5.48,2.18,7.68,4.39c45.38,45.43,90.78,90.86,136.25,136.21c3.54,3.53,5.22,7.39,4.79,12.33
	c-0.44,5.11-3.37,8.81-8.31,10.26c-2.36,0.69-4.78,0.73-7.2,0.73c-17.81,0-35.62,0-53.43,0c-1.45,0-2.91-0.08-4.36,0.13
	c-4.05,0.58-6.5,3.22-6.74,7.3c-0.08,1.33-0.03,2.67-0.03,4c0,59.73,0,119.47,0,179.2c0,2.18,0.03,4.36-0.26,6.53
	C222.37,366.84,219.95,371.19,213.68,372.33z"/>
</svg>
