<svg version="1.1" xmlns="http://www.w3.org/2000/svg" xmlns:xlink="http://www.w3.org/1999/xlink" x="0px" y="0px"
	 width="426.67px" height="512px" viewBox="0 0 426.67 512" style="enable-background:new 0 0 426.67 512;" xml:space="preserve">
<style type="text/css">
	.st0{fill:#B2B2B2;}
</style>
<defs>
</defs>
<path class="st0" d="M405.33,85.33H339.2C328.99,35.7,285.34,0.06,234.67,0H192C141.33,0.06,97.67,35.7,87.47,85.33H21.33
	C9.55,85.33,0,94.88,0,106.67S9.55,128,21.33,128h21.33v277.33c0.07,58.88,47.79,106.6,106.67,106.67h128
	c58.88-0.07,106.6-47.79,106.67-106.67V128h21.33c11.78,0,21.33-9.55,21.33-21.33S417.12,85.33,405.33,85.33z M192,42.67h42.67
	c27.11,0.03,51.28,17.12,60.35,42.67H131.65C140.72,59.78,164.89,42.7,192,42.67z M341.33,405.33c0,35.35-28.65,64-64,64h-128
	c-35.35,0-64-28.65-64-64V128h256V405.33z"/>
<path class="st0" d="M170.67,384c11.78,0,21.33-9.55,21.33-21.33v-128c0-11.78-9.55-21.33-21.33-21.33s-21.33,9.55-21.33,21.33v128
	C149.33,374.45,158.88,384,170.67,384z"/>
<path class="st0" d="M256,384c11.78,0,21.33-9.55,21.33-21.33v-128c0-11.78-9.55-21.33-21.33-21.33c-11.78,0-21.33,9.55-21.33,21.33
	v128C234.67,374.45,244.22,384,256,384z"/>
</svg>
