<svg version="1.1" xmlns="http://www.w3.org/2000/svg" xmlns:xlink="http://www.w3.org/1999/xlink" x="0px" y="0px" width="512px"
	 height="511.93px" viewBox="0 0 512 511.93" style="enable-background:new 0 0 512 511.93;" xml:space="preserve">
<style type="text/css">
	.st0{fill:#CF7AFE;}
</style>

<path class="st0" d="M375.76,330.94c67.9-92.65,47.83-222.8-44.82-290.7S108.14-7.59,40.24,85.06s-47.83,222.8,44.82,290.7
	c73.23,53.67,172.81,53.63,246-0.09h-0.03c0.96,1.28,1.98,2.5,3.14,3.68l123.19,123.19c12.49,12.5,32.76,12.51,45.26,0.02
	c12.5-12.49,12.51-32.76,0.02-45.26L379.44,334.11c-1.14-1.16-2.37-2.23-3.68-3.2L375.76,330.94z M384.02,207.94
	c0,97.2-78.79,175.99-175.99,175.99S32.04,305.14,32.04,207.94S110.83,31.95,208.03,31.95S384.02,110.75,384.02,207.94z"/>
</svg>
