<svg version="1.1" xmlns="http://www.w3.org/2000/svg" xmlns:xlink="http://www.w3.org/1999/xlink" x="0px" y="0px" width="512px"
	 height="512px" viewBox="0 0 512 512" style="enable-background:new 0 0 512 512;" xml:space="preserve">
<style type="text/css">
	.st0{fill:#C684FF;}
</style>
<defs>
</defs>
<path class="st0" d="M256,0C114.62,0,0,114.62,0,256s114.62,256,256,256s256-114.62,256-256C511.85,114.68,397.32,0.15,256,0z
	 M256,469.33c-117.82,0-213.33-95.51-213.33-213.33S138.18,42.67,256,42.67S469.33,138.18,469.33,256
	C469.2,373.77,373.77,469.2,256,469.33z M362.67,256c0,11.78-9.55,21.33-21.33,21.33h-64v64c0,11.78-9.55,21.33-21.33,21.33
	c-11.78,0-21.33-9.55-21.33-21.33v-64h-64c-11.78,0-21.33-9.55-21.33-21.33c0-11.78,9.55-21.33,21.33-21.33h64v-64
	c0-11.78,9.55-21.33,21.33-21.33c11.78,0,21.33,9.55,21.33,21.33v64h64C353.12,234.67,362.67,244.22,362.67,256z"/>
</svg>
