<svg version="1.1" xmlns="http://www.w3.org/2000/svg" xmlns:xlink="http://www.w3.org/1999/xlink" x="0px" y="0px"
	 width="409.64px" height="408.04px" viewBox="0 0 409.64 408.04" style="enable-background:new 0 0 409.64 408.04;"
	 xml:space="preserve">
<style type="text/css">
	.st0{fill:#F13B3B;}
	.st1{fill:#51504E;}
	.st2{fill:#C52222;}
	.st3{fill:#E47225;}
	.st4{fill:#EEBE85;}
	.st5{fill:#DCDCDC;}
	.st6{fill:#C5C5C5;}
	.st7{fill:#F8AD41;}
	.st8{fill:#F3CE9C;}
	.st9{fill:#D3D5D5;}
	.st10{fill:#E5E7E7;}
	.st11{fill:#6B6968;}
	.st12{fill:#F88721;}
</style>
<defs>
</defs>
<path class="st0" d="M408.95,83.42c-1.02,12.35-5.41,23.55-12.69,33.4c-9.67,13.1-21.91,23.84-33.72,34.94
	c-1.1-0.3-1.72-1.21-2.47-1.96c-21.28-21.3-42.58-42.57-63.86-63.88c-1.12-1.12-2.42-2.11-3.04-3.66c-0.09-0.4-0.09-0.8-0.01-1.21
	c0.32-1.06,1.02-1.87,1.78-2.62c10.22-10.09,19.7-21.01,30.97-29.93c12.42-9.83,26.66-15.68,42.57-17.67
	c9.38-1.18,18.55-0.23,27.79,0.76c1.59,0.37,2.3,1.68,3.04,2.92c5.66,9.51,10.3,19.35,9.92,30.81c-0.01,0.42,0.15,0.76,0.4,1.07
	c0,4.27,0,8.53,0,12.8C408.69,80.49,409.68,82.09,408.95,83.42z"/>
<path class="st1" d="M43.09,379.79c-9.59-9.62-19.19-19.24-28.84-28.81c-0.98-0.97-1.82-2.42-3.63-1.94
	c-0.34,1.13-0.69,2.27-1.03,3.4c-3.2,10.8-6.4,21.59-9.59,32.39c0,4,0,8,0,12c0.7,4.29,2.73,7.6,6.73,9.62
	c1.94,0.98,4.14,0.69,6.07,1.58c0.8,0,1.6,0,2.4,0c1.87,0,3.73,0,5.6,0c-0.01-0.24,0.02-0.47,0.1-0.7h0
	c6.35-0.35,12.3-2.4,18.3-4.26c0.81-0.29,1.38-0.87,1.62-1.65c1.81-5.83,4.04-11.54,4.78-17.66
	C45.39,382.04,44.21,380.92,43.09,379.79z"/>
<path class="st2" d="M394.43,27.68c-7.64-9.84-17.35-17.01-28.63-22.16c-7.68-3.51-15.84-4.89-24.17-5.52c-1.07,0-2.13,0-3.2,0
	c-0.53,0-1.07,0-1.6,0c-1.07,0-2.13,0-3.2,0c-0.53,0-1.07,0-1.6,0c-1.07,0-2.13,0-3.2,0c-0.27,0.25-0.52,0.68-0.81,0.71
	c-19.02,1.97-34.64,10.52-47.79,24.17c-7.08,7.36-14.49,14.41-21.74,21.59c-0.46,1.97,1.15,2.84,2.21,3.9
	c9.71,9.78,19.45,19.52,29.22,29.24c1,1,1.88,2.3,3.58,2.23c6.85-7.98,14.7-14.96,22.01-22.48c8.29-8.54,17.53-15.76,28.52-20.59
	c14.25-6.26,28.98-8.85,44.53-6.94c2.41,0.3,5.04,2.35,7.55,0.1C396.6,30.09,395.38,28.91,394.43,27.68z"/>
<path class="st3" d="M33.8,272.02c0.56-0.72,1.04-1.5,1.68-2.14c54.98-55,109.97-109.99,164.96-164.98
	c0.37-0.37,0.79-0.71,1.19-1.06c1.58-0.26,2.44,0.9,3.35,1.81c9.83,9.78,19.62,19.58,29.41,29.4c0.93,0.94,1.95,1.85,2.1,3.3
	c-0.19,1.92-1.67,2.97-2.87,4.18c-53.88,53.9-107.77,107.79-161.67,161.68c-0.94,0.94-1.79,1.99-3.09,2.49
	c-1.69,0.11-2.62-1.13-3.64-2.14c-9.79-9.74-19.55-19.51-29.3-29.3C35.01,274.34,33.89,273.51,33.8,272.02z"/>
<path class="st4" d="M33.8,272.02c10.49,10.41,20.97,20.82,31.46,31.23c1.13,1.12,2.33,2.17,3.5,3.25c0.26,0.38,0.31,0.78,0.17,1.21
	c-5.58,16.62-10.04,33.59-15.16,50.35c-2.56,8.36-4.51,16.92-7.8,25.06c-0.36,0.35-0.74,0.37-1.14,0.08
	c-11.18-11.61-22.52-23.06-34.21-34.15c7.4-25.13,14.8-50.26,22.19-75.4C33,272.99,33.15,272.37,33.8,272.02z"/>
<path class="st5" d="M258.49,46.48c3.89,5.07,8.79,9.18,13.24,13.72c7.17,7.29,14.5,14.44,21.76,21.65c-0.02,0.2-0.03,0.4-0.03,0.61
	c-8.55,9.09-17.54,17.74-26.38,26.54c-0.57,0.56-1.25,0.99-2.07,1.13c-0.38,0.02-0.76-0.03-1.13-0.15
	c-5.62-4.64-10.44-10.1-15.6-15.21c-6.29-6.22-12.64-12.39-18.73-18.82c7.84-7.93,15.61-15.92,23.57-23.73
	C255,50.37,255.97,47.69,258.49,46.48z"/>
<path class="st6" d="M229.55,75.94c0.71,0.32,1.59,0.46,2.1,0.98c10.82,10.87,21.6,21.78,32.39,32.69c0.98,1.31,0.1,2.31-0.71,3.12
	c-8.71,8.66-17.03,17.72-26.24,25.87c-0.41,0.12-0.73,0-0.99-0.33c-11.31-11.66-22.72-23.21-34.48-34.41
	C210.94,94.54,220.24,85.24,229.55,75.94z"/>
<path class="st7" d="M305.82,208.03c-32.27,32.3-64.54,64.61-96.82,96.9c-22.77,22.79-45.56,45.56-68.35,68.33
	c-0.93,0.93-1.98,1.73-2.97,2.59c-1.57-0.23-2.53-1.37-3.56-2.39c-9.58-9.56-19.15-19.13-28.7-28.72c-1.1-1.1-2.49-2.07-2.48-3.9
	c0.65-1.69,2.08-2.74,3.29-3.95c53.41-53.43,106.82-106.84,160.25-160.24c1.39-1.38,2.54-3.15,4.71-3.51
	c1.76,0.16,2.76,1.48,3.87,2.58c9.49,9.45,18.96,18.92,28.4,28.42C304.54,205.22,306.05,206.12,305.82,208.03z"/>
<path class="st8" d="M103.08,340.99c11.53,11.62,23.06,23.25,34.6,34.87c-8.88,3.18-18.09,5.2-27.15,7.7
	c-17.13,4.74-34.31,9.32-51.47,13.97c-5.11-4.15-10.38-8.14-13.51-14.17c1.77-9.25,5.06-18.08,7.64-27.1
	c4.47-15.65,9.28-31.2,13.91-46.8c0.31-1.04,0.27-2.16,1.73-2.24c1.45-0.5,2.25,0.58,3.05,1.38c9.94,9.85,19.82,19.75,29.69,29.67
	C102.31,339.03,103.1,339.79,103.08,340.99z"/>
<path class="st9" d="M305.82,208.03c-7.31-8.29-15.51-15.72-23.23-23.62c-3.63-3.71-7.41-7.26-11.13-10.88
	c-1.54-0.25-2.57-1.29-3.6-2.33c-9.65-9.65-19.32-19.29-28.94-28.98c-1.04-1.05-2.68-1.91-2.09-3.89
	c8.19-8.31,16.39-16.6,24.56-24.93c1.08-1.1,2.59-1.96,2.64-3.8c0.26,0,0.53,0.01,0.79,0.01c1.74,0.55,2.85,1.92,4.07,3.14
	c20.93,20.92,41.86,41.83,62.75,62.79c1.23,1.24,3.19,2.17,2.79,4.48c-9.05,9.16-18.09,18.32-27.17,27.45
	C306.93,207.8,306.31,207.85,305.82,208.03z"/>
<path class="st10" d="M334.44,180.02c-1.06-1.19-2.06-2.43-3.18-3.55c-21.08-21.11-42.18-42.19-63.26-63.3
	c-1.12-1.12-2.11-2.37-3.16-3.56c8.29-8.16,16.57-16.33,24.88-24.46c1.1-1.07,1.91-2.62,3.75-2.7c5.88,5.79,11.8,11.55,17.65,17.38
	c16.23,16.19,32.43,32.41,48.62,48.64c1.02,1.02,2.31,1.83,2.82,3.3c-0.69,2.52-3.07,3.54-4.71,5.18
	C350.09,164.7,342.25,172.34,334.44,180.02z"/>
<path class="st11" d="M45.54,383.36c4.5,4.72,9.01,9.45,13.51,14.17c-6.62,1.85-13.24,3.7-19.86,5.55
	c2.09-6.57,4.4-13.08,5.63-19.89C45.07,383.24,45.31,383.3,45.54,383.36z"/>
<path class="st12" d="M236.84,138.33c10.48,10.56,20.96,21.11,31.43,31.68c1.12,1.13,2.14,2.35,3.2,3.52
	c-1.67,0.69-2.69,2.16-3.9,3.37c-53.55,53.53-107.09,107.08-160.65,160.61c-1.22,1.22-2.56,2.32-3.84,3.47
	c-10.26-10.18-20.51-20.36-30.78-30.53c-1.13-1.12-2.33-2.16-3.49-3.23c-0.01-0.24-0.03-0.48-0.06-0.72
	c1.05-1.19,2.04-2.45,3.16-3.57c53.59-53.61,107.18-107.2,160.77-160.8c1.21-1.21,2.28-2.58,3.42-3.87
	C236.35,138.31,236.59,138.34,236.84,138.33z"/>
</svg>
