<svg version="1.1" xmlns="http://www.w3.org/2000/svg" xmlns:xlink="http://www.w3.org/1999/xlink" x="0px" y="0px" width="512px"
	 height="418.91px" viewBox="0 0 512 418.91" style="enable-background:new 0 0 512 418.91;" xml:space="preserve">
<style type="text/css">
	.st0{fill:#b2b2b2;}
</style>

<path class="st0" d="M0,395.64c0-12.85,10.42-23.27,23.27-23.27h465.45c12.85,0,23.27,10.42,23.27,23.27
	c0,12.85-10.42,23.27-23.27,23.27H23.27C10.42,418.91,0,408.49,0,395.64z M0,209.45c0-12.85,10.42-23.27,23.27-23.27h465.45
	c12.85,0,23.27,10.42,23.27,23.27c0,12.85-10.42,23.27-23.27,23.27H23.27C10.42,232.73,0,222.31,0,209.45z M0,23.27
	C0,10.42,10.42,0,23.27,0h465.45C501.58,0,512,10.42,512,23.27s-10.42,23.27-23.27,23.27H23.27C10.42,46.55,0,36.13,0,23.27z"/>
</svg>
