<svg version="1.1" xmlns="http://www.w3.org/2000/svg" xmlns:xlink="http://www.w3.org/1999/xlink" x="0px" y="0px" width="512px"
	 height="512px" viewBox="0 0 512 512" style="enable-background:new 0 0 512 512;" xml:space="preserve">
<style type="text/css">
	.st0{fill:#B2B2B2;}
</style>

	<path class="st0" d="M405.33,42.67H384V21.33C384,9.55,374.45,0,362.67,0c-11.78,0-21.33,9.55-21.33,21.33v21.33H170.67V21.33
		C170.67,9.55,161.12,0,149.33,0S128,9.55,128,21.33v21.33h-21.33C47.79,42.74,0.07,90.45,0,149.33v256
		C0.07,464.21,47.79,511.93,106.67,512h298.67c58.88-0.07,106.6-47.79,106.67-106.67v-256C511.93,90.45,464.21,42.74,405.33,42.67z
		 M42.67,149.33c0-35.35,28.65-64,64-64h298.67c35.35,0,64,28.65,64,64v21.33H42.67V149.33z M405.33,469.33H106.67
		c-35.35,0-64-28.65-64-64v-192h426.67v192C469.33,440.68,440.68,469.33,405.33,469.33z"/>
	<circle class="st0" cx="256" cy="320" r="32"/>
	<circle class="st0" cx="149.33" cy="320" r="32"/>
	<circle class="st0" cx="362.67" cy="320" r="32"/>
</svg>
