<svg version="1.1" xmlns="http://www.w3.org/2000/svg" xmlns:xlink="http://www.w3.org/1999/xlink" x="0px" y="0px"
	 width="289.23px" height="289.23px" viewBox="0 0 289.23 289.23" style="enable-background:new 0 0 289.23 289.23;"
	 xml:space="preserve">
<style type="text/css">
	.st0{fill:#87C841;}
</style>
<defs>
</defs>
<path class="st0" d="M144.61,0C64.75,0,0,64.75,0,144.61s64.75,144.61,144.61,144.61c79.87,0,144.61-64.75,144.61-144.61
	S224.48,0,144.61,0z M218.69,108.63c-12.83,12.96-25.76,25.81-38.65,38.7c-16.51,16.51-33.04,33.02-49.53,49.55
	c-2.82,2.83-5.84,5.09-9.78,4.76c-3.67,0.1-6.38-1.28-8.68-3.57c-13.96-13.95-27.95-27.86-41.84-41.88
	c-4.98-5.03-4.87-12.3-0.05-17.09c4.81-4.78,12.02-4.85,17.09,0.14c10.25,10.06,20.43,20.19,30.48,30.45
	c2.21,2.26,3.34,2.55,5.77,0.1c25.78-25.97,51.69-51.8,77.59-77.65c5.17-5.16,11.4-6.02,16.48-2.37
	C223.9,94.31,224.5,102.76,218.69,108.63z"/>
</svg>
