<svg version="1.1" xmlns="http://www.w3.org/2000/svg" xmlns:xlink="http://www.w3.org/1999/xlink" x="0px" y="0px"
	 width="447.97px" height="512px" viewBox="0 0 447.97 512" style="enable-background:new 0 0 447.97 512;" xml:space="preserve">
<style type="text/css">
	.st0{fill:#B2B2B2;}
</style>

<path class="st0" d="M223.99,512c35.34,0,64-28.65,64-64H159.99C159.99,483.35,188.64,512,223.99,512z M223.99,61.4l-25.5,5.15
	C138.85,78.71,96,131.16,95.99,192.02c0,20.09-4.29,70.3-14.69,119.74c-5.12,24.54-12.03,50.11-21.21,72.25h327.79
	c-9.18-22.14-16.06-47.68-21.21-72.25c-10.4-49.44-14.69-99.64-14.69-119.74c-0.02-60.85-42.86-113.28-102.49-125.43l-25.5-5.22
	V61.4z M423.01,384.01c7.14,14.3,15.39,25.63,24.96,32H0c9.57-6.37,17.82-17.69,24.96-32C53.76,326.41,64,220.18,64,192.02
	c0-77.44,55.04-142.07,128.15-156.82c-1.77-17.58,11.06-33.27,28.64-35.03c17.58-1.77,33.27,11.06,35.03,28.64
	c0.21,2.13,0.21,4.27,0,6.39c74.56,15.17,128.14,80.73,128.15,156.82C383.98,220.18,394.22,326.41,423.01,384.01z"/>
</svg>
