<svg version="1.1" xmlns="http://www.w3.org/2000/svg" xmlns:xlink="http://www.w3.org/1999/xlink" x="0px" y="0px"
	 width="311.59px" height="383.95px" viewBox="0 0 311.59 383.95" style="enable-background:new 0 0 311.59 383.95;"
	 xml:space="preserve">
<style type="text/css">
	.st0{fill:#37474F;}
</style>
<defs>
</defs>
<path class="st0" d="M103.49,383.95c-4.25,0-8.5,0-12.75,0c-16.34-1.66-26.84-12.54-37.06-23.69C40.41,345.79,30.65,329,22.21,311.4
	c-9.65-20.11-16.47-41.16-20.47-63.08c-1.16-6.34-0.94-12.89-1.37-19.34c-0.06-0.84,0.28-1.75-0.37-2.51c0-2.25,0-4.5,0-6.75
	c0.59-2.25,0.59-4.5,0-6.75c0-2.25,0-4.5,0-6.75c0.83-5.28,0.72-10.63,1.25-15.94c1.03-10.43,4.52-20.18,8.49-29.75
	c7.31-17.6,18.39-32.59,32.69-45.08c11.61-10.14,24.59-17.96,40.1-20.63c7.77-1.34,15.4,0.28,23.03,1.43
	c11.56,1.74,22.3,6.3,33.34,9.81c7.98,2.53,16.13,4.69,24.62,3.9c8.99-0.84,17.68-3.13,26.07-6.47c12.26-4.87,25.01-7.74,38.1-8.98
	c8.96-0.85,17.24,2.28,25.38,5.48c19.22,7.54,34.1,20.41,45.39,37.58c0.55,0.84,1.02,1.72,1.48,2.6c4.44,8.54,2.33,13.74-6.62,17.27
	c-18.15,7.15-29.85,20.18-34.13,39.26c-6.53,29.15,12.72,58.25,42.06,64.09c1.1,0.22,2.2,0.45,3.29,0.71
	c5.36,1.28,6.2,2.19,7.04,7.69c0,1.16,0,2.32,0,3.47c-0.48,10.87-5.25,20.43-9.38,30.14c-7.7,18.08-17.15,35.21-29.45,50.6
	c-8.27,10.35-17.38,19.86-29.06,26.63c-4.74,2.75-9.9,2.95-14.98,3.92c-1.75,0-3.5,0-5.25,0c-1.75-0.6-3.5-0.6-5.25,0c-2,0-4,0-6,0
	c-7.2-1.14-14.56-1.12-21.59-3.58c-6.49-2.27-12.58-5.4-18.89-8.05c-8.48-3.56-16.77-2.99-24.94,0.92
	c-4.16,1.99-8.38,3.83-12.62,5.64c-7.8,3.35-16.07,4.23-24.42,4.69c-0.61,0.03-1.25-0.1-1.76,0.38c-1,0-2,0-3,0
	C104.49,383.49,103.99,383.49,103.49,383.95z"/>
<path class="st0" d="M234.72,0c4.53,2.39,5.7,6.18,5.51,11.15c-1.76,46.7-40.29,84.6-86.43,84.82c-6.49,0.03-9.59-3.16-9.42-9.71
	c1.1-43.89,33.25-79.67,76.83-85.51c0.59-0.08,1.27,0.04,1.52-0.74C226.72,0,230.72,0,234.72,0z"/>
</svg>
