<svg version="1.1" xmlns="http://www.w3.org/2000/svg" xmlns:xlink="http://www.w3.org/1999/xlink" x="0px" y="0px" width="512px"
	 height="512px" viewBox="0 0 512 512" style="enable-background:new 0 0 512 512;" xml:space="preserve">
<style type="text/css">
	.st0{fill:#B2B2B2;}
</style>

<path class="st0" d="M256,512C114.84,512,0,397.16,0,256S114.84,0,256,0s256,114.84,256,256S397.16,512,256,512z M256,42.67
	c-117.63,0-213.33,95.7-213.33,213.33S138.37,469.33,256,469.33S469.33,373.63,469.33,256S373.63,42.67,256,42.67z M362.67,256
	c0-11.8-9.54-21.33-21.33-21.33h-64V128c0-11.8-9.56-21.33-21.33-21.33s-21.33,9.54-21.33,21.33v128c0,11.8,9.56,21.33,21.33,21.33
	h85.33C353.13,277.33,362.67,267.8,362.67,256z"/>
</svg>
