<svg version="1.1" xmlns="http://www.w3.org/2000/svg" xmlns:xlink="http://www.w3.org/1999/xlink" x="0px" y="0px"
	 width="426.67px" height="512px" viewBox="0 0 426.67 512" style="enable-background:new 0 0 426.67 512;" xml:space="preserve">
<style type="text/css">
	.st0{fill:#305EE2;}
</style>
<defs>
</defs>
<path class="st0" d="M408.64,69.8l-48.73-50.33C347.83,7.06,331.25,0.04,313.92,0H213.33c-50.67,0.06-94.33,35.7-104.53,85.33h-2.13
	C47.79,85.4,0.07,133.12,0,192v213.33C0.07,464.21,47.79,511.93,106.67,512h128c58.88-0.07,106.6-47.79,106.67-106.67v-2.13
	c49.63-10.21,85.27-53.86,85.33-104.53V114.35C426.7,97.72,420.23,81.73,408.64,69.8z M234.67,469.33h-128c-35.35,0-64-28.65-64-64
	V192c0-35.35,28.65-64,64-64v170.67c0.07,58.88,47.79,106.6,106.67,106.67h85.33C298.67,440.68,270.01,469.33,234.67,469.33z
	 M320,362.67H213.33c-35.35,0-64-28.65-64-64v-192c0-35.35,28.65-64,64-64h85.33v42.67c0,23.56,19.1,42.67,42.67,42.67H384v170.67
	C384,334.01,355.35,362.67,320,362.67z"/>
</svg>
