<svg version="1.1" xmlns="http://www.w3.org/2000/svg" xmlns:xlink="http://www.w3.org/1999/xlink" x="0px" y="0px"
	 width="146.76px" height="150.68px" viewBox="0 0 146.76 150.68" style="enable-background:new 0 0 146.76 150.68;"
	 xml:space="preserve">
<style type="text/css">
	.st0{fill:#DD4040;}
</style>
<defs>
</defs>
<g>
	<path class="st0" d="M73.51,104.3L44.5,143.73c-6.19,8.15-14.01,8.47-21.84,3.26c-8.8-6.19-8.47-15.32-3.26-22.16l29.99-39.11
		L10.93,74.64c-8.15-2.28-13.36-9.45-9.78-19.56s11.41-13.04,19.56-10.43l37.48,12.39l-0.65-41.07C57.54,5.87,64.71,0,73.51,0
		s15.97,5.87,15.97,15.97l-0.65,41.07l37.48-12.39c8.15-2.61,16.62,0.33,19.56,10.43c2.93,10.1-1.63,17.27-9.78,19.56L97.3,85.72
		l30.31,39.11c6.19,7.5,5.54,15.97-3.26,22.16c-7.82,6.19-16.62,4.24-22.16-3.26L73.51,104.3z"/>
</g>
</svg>
