<svg version="1.1" xmlns="http://www.w3.org/2000/svg" xmlns:xlink="http://www.w3.org/1999/xlink" x="0px" y="0px"
	 width="206.42px" height="119.21px" viewBox="0 0 206.42 119.21" style="enable-background:new 0 0 206.42 119.21;"
	 xml:space="preserve">
<style type="text/css">
	.st0{fill:#A5D764;}
</style>
<defs>
</defs>
<path class="st0" d="M206.42,114.41c-0.78-1.09-0.29-2.32-0.39-3.48c-0.55-6.2-0.24-12.53-1.81-18.58
	c-5.53-21.3-17.13-38.77-34.09-52.7c-3.75-3.08-3.89-3.59-0.43-7.09c5.43-5.49,10.99-10.85,16.33-16.43
	c2.93-3.06,4.34-6.53,2.91-10.9c-1.34-4.1-4.8-4.46-8.12-5.24c-1.07,0-2.13,0-3.2,0c-4.49,0.71-7.99,2.96-11.08,6.33
	c-4.58,5-9.64,9.55-14.3,14.49c-2.52,2.67-5.09,3.04-8.2,1.42c-2.13-1.11-4.39-1.9-6.68-2.61c-12.94-4.02-26.11-5.47-39.68-4.86
	c-12.52,0.56-24.53,2.77-36.01,7.79c-2.81,1.23-5.02,0.74-7.17-1.48c-4.82-4.97-9.92-9.66-14.6-14.75C36.79,2.96,33.29,0.71,28.8,0
	c-1.33,0-2.67,0-4,0c-3.9,0.76-6.98,2.48-7.75,6.78c-0.67,3.74,0.81,6.78,3.33,9.38c5.57,5.72,11.31,11.29,16.9,16.99
	c2.74,2.79,2.62,3.57-0.35,6.02c-8.78,7.23-16.59,15.35-22.58,25.1C8.03,74.54,3.06,85.39,1.37,97.46
	c-0.75,5.35-0.55,10.8-1.37,16.15c0,1.6,0,3.2,0,4.8c0.18,0.12,0.37,0.2,0.57,0.27c-0.02,0.03-0.03,0.05-0.05,0.09
	c-0.06,0.16,0.03,0.31,0.28,0.44c68.27,0,136.55,0,204.82,0c0.08,0,0.17-0.07,0.25-0.21c0.06-0.1,0.05-0.21-0.03-0.32
	c0.2-0.07,0.39-0.15,0.58-0.27C206.42,117.08,206.42,115.74,206.42,114.41z M146.12,63.29c6.95,0.07,12.58,5.83,12.58,12.84
	c-0.01,7.09-5.55,12.68-12.62,12.71c-7.11,0.04-12.68-5.45-12.77-12.55C133.23,69.1,139.03,63.21,146.12,63.29z M60.69,63.29
	c6.98,0.18,12.49,5.95,12.41,13c-0.08,7.1-5.66,12.59-12.76,12.56c-7.06-0.03-12.61-5.62-12.62-12.71
	C47.71,68.97,53.63,63.11,60.69,63.29z"/>
</svg>
