<svg version="1.1" xmlns="http://www.w3.org/2000/svg" xmlns:xlink="http://www.w3.org/1999/xlink" x="0px" y="0px"
	 width="426.67px" height="512px" viewBox="0 0 426.67 512" style="enable-background:new 0 0 426.67 512;" xml:space="preserve">
<style type="text/css">
	.st0{fill:#2CA323;}
</style>
<defs>
</defs>
<path class="st0" d="M320,298.67c0,11.78-9.55,21.33-21.33,21.33H128c-11.78,0-21.33-9.55-21.33-21.33
	c0-11.78,9.55-21.33,21.33-21.33h170.67C310.45,277.33,320,286.89,320,298.67z M234.67,362.67H128c-11.78,0-21.33,9.55-21.33,21.33
	c0,11.78,9.55,21.33,21.33,21.33h106.67c11.78,0,21.33-9.55,21.33-21.33C256,372.22,246.45,362.67,234.67,362.67z M426.67,223.68
	v181.65C426.6,464.21,378.88,511.93,320,512H106.67C47.79,511.93,0.07,464.21,0,405.33V106.67C0.07,47.79,47.79,0.07,106.67,0h96.32
	c39.63-0.1,77.65,15.64,105.6,43.73l74.33,74.37C411.02,146.04,426.77,184.06,426.67,223.68z M278.42,73.9
	c-6.71-6.5-14.25-12.1-22.42-16.64v92.07c0,11.78,9.55,21.33,21.33,21.33h92.07c-4.54-8.17-10.15-15.7-16.66-22.4L278.42,73.9z
	 M384,223.68c0-3.52-0.68-6.89-1-10.35H277.33c-35.35,0-64-28.65-64-64V43.67c-3.46-0.32-6.85-1-10.35-1h-96.32
	c-35.35,0-64,28.65-64,64v298.67c0,35.35,28.65,64,64,64H320c35.35,0,64-28.65,64-64V223.68z"/>
</svg>
