<svg version="1.1" xmlns="http://www.w3.org/2000/svg" xmlns:xlink="http://www.w3.org/1999/xlink" x="0px" y="0px" width="1064px"
	 height="2147px" viewBox="0 0 1064 2147" style="enable-background:new 0 0 1064 2147;" xml:space="preserve">
<style type="text/css">
	.st0{fill:#333343;}
	.st1{fill:#FFFFFF;}
</style>

<g>
	<path class="st0" d="M1047.37,339.5h-2.02V127.36C1045.35,57.02,988.33,0,917.99,0H146.01C75.67,0,18.65,57.02,18.65,127.36V339.5
		h-2.02C7.44,339.5,0,346.94,0,356.13v146.75c0,9.18,7.44,16.63,16.63,16.63h2.02v35h-2.02C7.44,554.5,0,561.94,0,571.13v146.75
		c0,9.18,7.44,16.63,16.63,16.63h2.02v1285.14c0,70.34,57.02,127.36,127.36,127.36h771.98c70.34,0,127.36-57.02,127.36-127.36
		V609.5h2.02c9.18,0,16.63-7.44,16.63-16.63V356.13C1064,346.94,1056.56,339.5,1047.37,339.5z"/>
	<path class="st1" d="M904.85,2115.5H159.15c-57.13,0-103.44-46.31-103.44-103.44V134.94c0-57.13,46.31-103.44,103.44-103.44
		h745.69c57.13,0,103.44,46.31,103.44,103.44v1877.11C1008.29,2069.19,961.98,2115.5,904.85,2115.5z"/>
</g>
</svg>
