<svg version="1.1" xmlns="http://www.w3.org/2000/svg" xmlns:xlink="http://www.w3.org/1999/xlink" x="0px" y="0px"
	 width="524.62px" height="121.09px" viewBox="0 0 524.62 121.09" style="enable-background:new 0 0 524.62 121.09;"
	 xml:space="preserve">
<style type="text/css">
	.st0{fill:#FFFFFF;}
</style>
<defs>
</defs>
<g>
	<path class="st0" d="M66.12,88.17c0,11.11,6.39,19.03,17.5,19.03c11.11,0,17.5-7.92,17.5-19.03V25.52c0-4.31,2.92-7.22,7.92-7.22
		c5,0,7.92,2.92,7.92,7.22v64.03c0,18.2-13.2,31.53-32.23,31.53c-11.25,0-21.39-5.28-26.25-13.06c-4.86,7.78-15,13.06-26.25,13.06
		C13.2,121.09,0,107.75,0,89.55V25.52c0-4.31,2.92-7.22,7.92-7.22s7.92,2.92,7.92,7.22v62.64c0,11.11,6.39,19.03,17.5,19.03
		c11.11,0,17.5-7.92,17.5-19.03V25.52c0-4.31,2.64-7.22,7.64-7.22s7.64,2.92,7.64,7.22V88.17z"/>
	<g>
		<path class="st0" d="M169.64,2.75c-0.33,1.61-1,2.84-2.73,2.75c-1.69-0.09-2.5-1.3-2.44-2.85c0.06-1.55,0.94-2.71,2.65-2.65
			C168.84,0.06,169.39,1.37,169.64,2.75z"/>
		<path class="st0" d="M161.35,8.59c-1.35-1.39-2.53-0.44-3.6,0.61c-1.54,1.5-3.07,3-4.63,4.47c-2.28,2.14-4.59,4.24-7.28,6.72
			c0-1.71-0.03-2.87,0.01-4.03c0.05-1.56,0.03-3.29-2.05-3.18c-1.91,0.09-2.03,1.74-2.02,3.33c0.01,1.41,0.25,2.86-0.25,4.49
			c-1.64-1.57-3.06-2.96-4.52-4.31c-1.01-0.94-2.18-1.9-3.44-0.55c-1.24,1.33-0.24,2.4,0.74,3.41c1.4,1.44,3.07,2.62,4.48,4.63
			c-2.09,0-3.77-0.01-5.46,0c-1.38,0.01-2.35,0.62-2.33,2.08c0.02,1.34,0.95,1.92,2.24,1.93c1.3,0.01,2.6,0,3.9,0
			c0.1,0.19,0.19,0.38,0.29,0.57c-0.99,0.93-1.98,1.86-2.96,2.8c-1.01,0.96-2.01,2.03-0.77,3.4c1.28,1.42,2.36,0.43,3.38-0.54
			c1.43-1.35,2.87-2.67,4.74-4.41c0,2.65-0.03,4.76,0.01,6.86c0.03,1.41,0.63,2.56,2.2,2.51c1.49-0.05,1.81-1.2,1.84-2.53
			c0.03-1.88-0.24-3.78,0.26-5.98c1.81,1.69,3.43,3.18,5.02,4.71c0.97,0.93,2.03,1.42,3.09,0.35c1.05-1.07,0.59-2.14-0.37-3.09
			c-1.29-1.3-2.55-2.64-4.14-4.29c1.78,0,3.16,0.04,4.55-0.01c1.3-0.05,2.39-0.59,2.47-2.03c0.08-1.5-1.09-2-2.31-2.21
			c-0.87-0.15-1.77-0.1-2.65-0.12c-1.06-0.02-2.12,0-3.65,0c0.66-0.74,0.88-1.01,1.14-1.26c3.77-3.65,7.56-7.29,11.33-10.94
			C161.56,11.01,162.66,9.95,161.35,8.59z"/>
		<path class="st0" d="M135.7,54.41c0-4.31,2.64-7.64,7.64-7.64c5,0,7.64,3.33,7.64,7.64v57.64c0,4.31-2.64,7.64-7.64,7.64
			c-5,0-7.64-3.33-7.64-7.64V54.41z"/>
	</g>
	<path class="st0" d="M167.23,67.47c0-11.11,8.75-20.7,23.89-20.7c7.78,0,15.14,2.92,19.45,6.11c7.08,5.56,0.69,15.56-6.94,10.56
		c-3.47-2.22-7.08-3.61-11.67-3.61c-5.56,0-9.44,2.36-9.44,7.22c0,4.58,3.19,6.95,14.86,10.28c15,4.44,19.72,12.5,19.72,21.81
		c0,13.75-10.42,21.95-27.09,21.95c-8.61,0-18.2-3.2-22.5-8.33c-3.19-3.61-3.47-6.95-0.56-10.14c2.64-2.92,6.67-3.2,9.86,0
		c4.31,4.44,10.42,5.42,13.75,5.42c7.64,0,11.25-3.75,11.25-8.2c0-4.86-2.92-8.2-12.36-10.83
		C173.21,84.69,167.23,77.89,167.23,67.47z"/>
	<path class="st0" d="M277.1,79.97c0-11.11-5-20.14-16.81-20.14c-11.81,0-16.81,9.03-16.81,20.14v32.09c0,4.31-2.64,7.64-7.64,7.64
		s-7.64-3.33-7.64-7.64v-88.9c0-4.31,2.64-7.64,7.64-7.64s7.64,3.33,7.64,7.64v33.2c2.92-4.86,10.14-9.58,19.58-9.58
		c17.78,0,29.31,13.2,29.31,31.39v33.89c0,4.31-2.64,7.64-7.64,7.64s-7.64-3.33-7.64-7.64V79.97z"/>
	<path class="st0" d="M309.74,33.99c0-9.44,4.44-14.31,14.45-14.31h21.25c18.33,0,30.97,12.5,30.97,31.39s-12.64,31.25-30.97,31.25
		h-19.58v29.72c0,4.31-3.06,7.64-8.06,7.64s-8.06-3.33-8.06-7.64V33.99z M325.86,68.44h17.92c10.14,0,16.53-7.36,16.53-17.36
		s-6.53-17.5-16.53-17.5h-17.92V68.44z"/>
	<path class="st0" d="M417.53,121.09c-22.92,0-37.64-17.08-37.64-37.09c0-19.86,14.72-37.23,37.64-37.23
		c22.92,0,37.64,17.36,37.64,37.23C455.17,104,440.45,121.09,417.53,121.09z M417.53,108.03c13.89,0,22.36-10.28,22.36-24.03
		s-8.47-24.17-22.36-24.17S395.17,70.25,395.17,84S403.64,108.03,417.53,108.03z"/>
	<path class="st0" d="M492.68,112.33c0,4.31-3.47,7.36-7.36,7.36c-2.36,0-4.44-0.97-6.53-2.08c-6.53-3.75-9.72-10-9.72-20.7V23.3
		c0-4.31,2.64-7.78,7.64-7.78s7.92,3.47,7.92,7.78v71.26c0,7.64,1.81,10.14,5.14,12.36C491.7,108.17,492.68,109.97,492.68,112.33z"
		/>
	<path class="st0" d="M524.62,112.33c0,4.31-3.47,7.36-7.36,7.36c-2.36,0-4.44-0.97-6.53-2.08c-6.53-3.75-9.72-10-9.72-20.7V23.3
		c0-4.31,2.64-7.78,7.64-7.78s7.92,3.47,7.92,7.78v71.26c0,7.64,1.81,10.14,5.14,12.36C523.65,108.17,524.62,109.97,524.62,112.33z"
		/>
</g>
</svg>
